<svg xmlns="http://www.w3.org/2000/svg" viewBox="0 0 14 16"><path d="M13.943,9.037c-.038,.092-.093,.175-.162,.244l-2.25,2.25c-.146,.146-.338,.22-.53,.22s-.384-.073-.53-.22c-.293-.293-.293-.768,0-1.061l.97-.97H6.75c-.414,0-.75-.336-.75-.75s.336-.75,.75-.75h4.69l-.97-.97c-.293-.293-.293-.768,0-1.061s.768-.293,1.061,0l2.25,2.25c.069,.069,.124,.152,.162,.244,.076,.183,.076,.39,0,.573Z"/><path d="M10.5,4.25v-.5L7.5,1.5H1.5V14.5H10.5v-.75c0-.41,.34-.75,.75-.75s.75,.34,.75,.75v1.5c0,.41-.34,.75-.75,.75H.75c-.41,0-.75-.34-.75-.75V.75C0,.34,.34,0,.75,0H7.75c.16,0,.32,.05,.45,.15l3.5,2.62c.19,.15,.3,.37,.3,.61v.87c0,.41-.34,.75-.75,.75s-.75-.34-.75-.75Z"/></svg>