<svg xmlns="http://www.w3.org/2000/svg" viewBox="0 0 16 16"><path d="M9,4.75v3.349l1.916,1.277c.345,.229,.438,.695,.208,1.04-.145,.217-.382,.334-.625,.334-.143,0-.288-.041-.416-.126l-2.25-1.5c-.208-.139-.334-.373-.334-.624v-3.75c0-.414,.336-.75,.75-.75s.75,.336,.75,.75Zm-.5-4.25C5.192,.5,2.313,2.621,1.335,5.778c-.023,.074-.023,.148-.023,.222H.2c-.157,0-.253,.173-.169,.306l1.835,2.924c.078,.125,.26,.125,.339,0l1.835-2.924c.084-.133-.012-.306-.169-.306h-1.014c.847-2.398,3.078-4,5.644-4,3.309,0,6,2.691,6,6s-2.691,6-6,6c-1.602,0-3.109-.624-4.243-1.757-.293-.293-.768-.293-1.061,0-.292,.293-.292,.768,0,1.061,1.417,1.416,3.301,2.196,5.303,2.196,4.136,0,7.5-3.364,7.5-7.5S12.636,.5,8.5,.5Z"/></svg>