<svg xmlns="http://www.w3.org/2000/svg" viewBox="0 0 16 16"><path d="M9,4.75v3.349l1.916,1.277c.345,.229,.438,.695,.208,1.04-.145,.217-.382,.334-.625,.334-.143,0-.288-.041-.416-.126l-2.25-1.5c-.208-.139-.334-.373-.334-.624v-3.75c0-.414,.336-.75,.75-.75s.75,.336,.75,.75Zm-.5-3.75C5.378,1,2.692,3.068,1.818,6H.485c-.139,0-.223,.155-.146,.271l2.098,3.174c.069,.105,.223,.105,.292,0l2.098-3.174c.077-.116-.007-.271-.146-.271h-1.303c.809-2.076,2.821-3.5,5.121-3.5,3.033,0,5.5,2.468,5.5,5.5s-2.467,5.5-5.5,5.5c-1.564,0-3.06-.67-4.103-1.838-.276-.307-.75-.336-1.059-.06s-.336,.75-.06,1.06c1.328,1.485,3.231,2.338,5.222,2.338,3.86,0,7-3.141,7-7S12.36,1,8.5,1ZM16.36-.36"/></svg>