<svg xmlns="http://www.w3.org/2000/svg" viewBox="0 0 15 16"><path d="M8.5,4.75v3.349l1.916,1.277c.345,.229,.438,.695,.208,1.04-.145,.217-.382,.334-.625,.334-.143,0-.288-.041-.416-.126l-2.25-1.5c-.208-.139-.334-.373-.334-.624v-3.75c0-.414,.336-.75,.75-.75s.75,.336,.75,.75Zm-.5-3.75C4.83,1,2.15,3.11,1.29,6H.26c-.21,0-.33,.23-.21,.4l1.83,2.53c.1,.14,.31,.14,.41,0l1.82-2.53c.12-.17,.01-.4-.2-.4h-1.03c.8-2.05,2.79-3.5,5.12-3.5,3.03,0,5.5,2.47,5.5,5.5s-2.47,5.5-5.5,5.5c-1.47,0-2.85-.57-3.89-1.61-.29-.29-.77-.29-1.06,0s-.29,.77,0,1.06c1.32,1.32,3.08,2.05,4.95,2.05,3.86,0,7-3.14,7-7S11.86,1,8,1Z"/></svg>