<svg xmlns="http://www.w3.org/2000/svg" viewBox="0 0 16 16"><path d="M8,6c1.103,0,2,.897,2,2s-.897,2-2,2-2-.897-2-2,.897-2,2-2m0-1.5c-1.933,0-3.5,1.567-3.5,3.5s1.567,3.5,3.5,3.5,3.5-1.567,3.5-3.5-1.567-3.5-3.5-3.5h0Zm1.329-3l.433,.994,.196,.449,.423,.247,.517,.302,.428,.25,.493-.054,1.055-.116,1.345,2.359-.642,.888-.285,.393v1.575l.285,.393,.642,.888-1.345,2.359-1.055-.116-.493-.054-.428,.25-.517,.302-.423,.247-.196,.449-.433,.994h-2.659l-.433-.994-.196-.449-.423-.247-.517-.302-.428-.25-.493,.054-1.055,.116-1.345-2.359,.642-.888,.285-.393v-1.575l-.285-.393-.642-.888,1.345-2.359,1.055,.116,.493,.054,.428-.25,.517-.302,.423-.247,.196-.449,.433-.994h2.659m.983-1.5H5.688l-.825,1.895c-.191,.111-.326,.191-.517,.302l-2.034-.224C1.214,3.899,1.098,4.101,0,6.027l1.208,1.671v.604l-1.208,1.671c1.098,1.926,1.214,2.128,2.312,4.054l2.034-.224c.191,.112,.326,.191,.517,.302l.825,1.895h4.624l.825-1.895c.191-.111,.326-.191,.517-.302l2.034,.224c1.098-1.926,1.214-2.128,2.312-4.054l-1.208-1.671v-.604l1.208-1.671c-1.098-1.926-1.214-2.128-2.312-4.054l-2.034,.224c-.191-.112-.326-.191-.517-.302l-.825-1.895h0Z"/></svg>