<svg xmlns="http://www.w3.org/2000/svg" viewBox="0 0 14 16"><path d="M7,6.5c.827,0,1.5,.673,1.5,1.5s-.673,1.5-1.5,1.5-1.5-.673-1.5-1.5,.673-1.5,1.5-1.5m0-1.5c-1.657,0-3,1.343-3,3s1.343,3,3,3,3-1.343,3-3-1.343-3-3-3h0Zm1.8,10h-3.6l-.812-1.841-.552-.318-2,.218L.039,9.941l1.188-1.622v-.639L.039,6.059,1.837,2.941l2,.218,.552-.318,.812-1.841h3.6l.812,1.841,.552,.318,2-.218,1.798,3.117-1.188,1.622v.639l1.188,1.622-1.798,3.117-2-.218-.552,.318-.812,1.841Zm-2.621-1.5h1.643l.614-1.394,1.401-.811,1.516,.165,.821-1.422-.9-1.229v-1.619l.9-1.229-.821-1.422-1.516,.165-1.401-.811-.614-1.394h-1.643l-.614,1.394-1.401,.811-1.516-.165-.821,1.422,.9,1.229v1.619l-.9,1.229,.821,1.422,1.516-.165,1.401,.811,.614,1.394Z"/></svg>