<svg xmlns="http://www.w3.org/2000/svg" viewBox="0 0 14 16"><path d="M7.943,8.037c-.038,.092-.093,.175-.162,.244l-2.25,2.25c-.146,.146-.338,.22-.53,.22s-.384-.073-.53-.22c-.293-.293-.293-.768,0-1.061l.97-.97H.75c-.414,0-.75-.336-.75-.75s.336-.75,.75-.75H5.44l-.97-.97c-.293-.293-.293-.768,0-1.061s.768-.293,1.061,0l2.25,2.25c.069,.069,.124,.152,.162,.244,.076,.183,.076,.39,0,.573Zm-2.693,4.963c.414,0,.75,.336,.75,.75v.75h6.5V1.5H6v.75c0,.414-.336,.75-.75,.75s-.75-.336-.75-.75V.75c0-.414,.336-.75,.75-.75H13.25c.414,0,.75,.336,.75,.75V15.25c0,.414-.336,.75-.75,.75H5.25c-.414,0-.75-.336-.75-.75v-1.5c0-.414,.336-.75,.75-.75Z"/></svg>