<svg xmlns="http://www.w3.org/2000/svg" viewBox="0 0 14 16"><path d="M10.828,14.463c-.117,0-.234-.027-.342-.083l-3.486-1.785-3.486,1.785c-.253,.129-.557,.105-.785-.062-.229-.168-.344-.451-.296-.73l.636-3.75L.236,7.173c-.21-.198-.289-.499-.201-.773s.325-.476,.611-.516l3.913-.549,1.775-3.425c.258-.497,1.074-.497,1.332,0l1.775,3.425,3.913,.549c.286,.04,.523,.241,.611,.516,.087,.275,.009,.576-.201,.773l-2.832,2.665,.636,3.75c.048,.28-.067,.562-.296,.73-.131,.096-.287,.145-.443,.145Zm-3.828-3.46c.117,0,.234,.027,.342,.083l2.497,1.278-.453-2.671c-.042-.248,.042-.5,.226-.672l1.986-1.868-2.748-.386c-.241-.034-.45-.182-.562-.397l-1.287-2.484-1.287,2.484c-.112,.215-.321,.364-.562,.397l-2.748,.386,1.986,1.868c.183,.172,.268,.424,.226,.672l-.453,2.671,2.497-1.278c.107-.055,.225-.083,.342-.083Z"/></svg>