<svg xmlns="http://www.w3.org/2000/svg" viewBox="0 0 16 16"><path d="M15.5,14.25c0,.414-.336,.75-.75,.75H.75c-.414,0-.75-.336-.75-.75V2.25c0-.414,.336-.75,.75-.75s.75,.336,.75,.75V13.5H14.75c.414,0,.75,.336,.75,.75ZM3.75,12c.414,0,.75-.336,.75-.75v-2.5c0-.414-.336-.75-.75-.75s-.75,.336-.75,.75v2.5c0,.414,.336,.75,.75,.75Zm6,0c.414,0,.75-.336,.75-.75V6.75c0-.414-.336-.75-.75-.75s-.75,.336-.75,.75v4.5c0,.414,.336,.75,.75,.75Zm-3,0c.414,0,.75-.336,.75-.75V4.75c0-.414-.336-.75-.75-.75s-.75,.336-.75,.75v6.5c0,.414,.336,.75,.75,.75ZM12.75,2c-.414,0-.75,.336-.75,.75V11.25c0,.414,.336,.75,.75,.75s.75-.336,.75-.75V2.75c0-.414-.336-.75-.75-.75Z"/></svg>