<svg xmlns="http://www.w3.org/2000/svg" viewBox="0 0 12 16"><path d="M3.787,4.5c-.414,0-.75,.336-.75,.75s.336,.75,.75,.75h7.463c.414,0,.75-.336,.75-.75V1.75c0-.414-.336-.75-.75-.75H.75c-.414,0-.75,.336-.75,.75v6.758c0,.325,.209,.613,.519,.713l2.412,.783c.337,.109,.552,.44,.514,.792l-.112,1.061c-.167,1.58,.984,3.087,2.573,3.141,.032,.001,.063,.002,.095,.002,1.603,0,2.853-1.389,2.684-2.983l-.129-1.22c-.037-.353,.177-.683,.514-.792l2.412-.783c.309-.1,.519-.388,.519-.713v-1.508h-1.5v.963l-1.893,.614c-1.012,.328-1.655,1.32-1.543,2.377l.129,1.22c.036,.343-.071,.672-.301,.928-.23,.255-.545,.396-.932,.396,0,0-.002,0-.003,0-.381-.013-.64-.222-.791-.395-.255-.293-.382-.7-.341-1.088l.112-1.061c.112-1.057-.532-2.049-1.543-2.377l-1.894-.614V2.5H10.5v2H3.787Z"/></svg>