<svg xmlns="http://www.w3.org/2000/svg" viewBox="0 0 12 16"><path d="M11.25,0L.75,2c-.41,0-.75,.34-.75,.75v6.76c0,.32,.21,.61,.52,.71l2.41,.78c.34,.11,.55,.44,.52,.8l-.12,1.06c-.16,1.58,.99,3.08,2.58,3.14h.09c1.6,0,2.85-1.39,2.68-2.98l-.13-1.22c-.03-.36,.18-.69,.52-.8l2.41-.78c.31-.1,.52-.39,.52-.71V.75c0-.41-.34-.75-.75-.75Zm-.75,8.961l-1.892,.612c-1.003,.324-1.641,1.291-1.55,2.386l.13,1.22c.036,.34-.07,.668-.3,.924-.23,.256-.546,.397-.889,.397h-.056c-.374-.022-.628-.228-.777-.399-.259-.297-.384-.695-.346-1.072l.124-1.104c.088-1.06-.55-2.027-1.553-2.352l-1.892-.612v-1.72l9-1.714v3.434Zm0-4.961L1.5,5.714V3.384L10.5,1.67v2.33Z"/></svg>